<svg xmlns="http://www.w3.org/2000/svg" viewBox="0 0 64 64" width="64" height="64" fill="currentColor">
  <path d="M57.21,11.16l-14.16-9C42.8,2,42.49,1.96,42.21,2.05c-0.28,0.09-0.51,0.3-0.62,0.58L38.19,11H21.03c-0.49-3.6-3.58-6.39-7.31-6.39c-4.07,0-7.39,3.32-7.39,7.39c0,3.73,2.79,6.82,6.39,7.31v8.34c0,7.23,5.15,13.28,11.98,14.66v13.98l-3.87,0.89c-1.06,0.24-1.77,1.17-1.73,2.26c0.04,1.08,0.8,1.94,1.86,2.11c1.37,0.21,2.99,0.36,4.68,0.42C26.3,61.99,26.98,62,27.67,62s1.37-0.01,2.02-0.04c1.71-0.06,3.33-0.2,4.69-0.42c1.06-0.16,1.83-1.03,1.86-2.11c0.04-1.09-0.67-2.01-1.73-2.26l-3.87-0.89V42.32c6.83-1.39,11.98-7.43,11.98-14.66V12c0-0.55-0.45-1-1-1h-1.28l2.64-6.51l13.15,8.36c0.47,0.3,1.08,0.16,1.38-0.31C57.82,12.07,57.68,11.45,57.21,11.16z" />
</svg>
